<svg width="24" height="24" xmlns="http://www.w3.org/2000/svg">

 <g>
  <title>background</title>
  <rect fill="none" id="canvas_background" height="402" width="582" y="-1" x="-1"/>
 </g>
 <g>
  <title>Layer 1</title>
  <path id="svg_2" fill="#7f7f7f" d="m22.0848,7.554976a10.085,10.085 0 1 1 -20.17,8.77a10.085,10.085 0 1 1 20.17,-8.77z"/>
  <path id="svg_3" fill="#e5e5e5" d="m20.9995,11.934976a8.9998,8.9998 0 1 1 -17.9996,0a8.9998,8.9998 0 1 1 17.9996,0z"/>
  <path id="svg_4" fill="#666666" d="m1.0339,11.399976c-0.0827,1.7 0.176,3.3 0.875,4.9c2.4217,5.6 8.8991,8.2 14.469,5.8c4.29,-1.9 6.778,-6.2 6.593,-10.6c-0.203,4 -2.631,7.8 -6.593,9.6c-5.57,2.4 -12.047,-0.2 -14.469,-5.8c-0.5565,-1.2 -0.8201,-2.6 -0.8751,-3.9l0.0001,0z"/>
  <path id="svg_5" fill="#999999" d="m20,11.999976c0,0.5 -0.448,1 -1,1l-6,0l0,-2l6,0c0.552,0 1,0.4 1,1z"/>
  <path id="svg_6" fill="#7f7f7f" d="m12,5c-0.552,0 -1,0.4477 -1,1l0,4l0,1l2,0l0,-1l0,-4c0,-0.5523 -0.448,-1 -1,-1z"/>
  <rect id="svg_7" y="-284.720024" x="-735.17" width="7" transform="rotate(-45 -731.669982910156,-284.2200317382812) " height="1" fill="#c0392b"/>
  <path id="svg_8" fill="#7f7f7f" d="m12,9.999976c-1.105,0 -2,0.9 -2,2s0.895,2 2,2s2,-0.9 2,-2s-0.895,-2 -2,-2zm0,1c0.552,0 1,0.4 1,1c0,0.5 -0.448,1 -1,1s-1,-0.5 -1,-1c0,-0.6 0.448,-1 1,-1z"/>
 </g>
</svg>