<svg width="96" height="96" xmlns="http://www.w3.org/2000/svg">

 <g>
  <title>background</title>
  <rect fill="none" id="canvas_background" height="402" width="582" y="-1" x="-1"/>
 </g>
 <g>
  <title>Layer 1</title>
  <path fill="#5c6061" clip-rule="evenodd" fill-rule="evenodd" id="XMLID_28_" d="m22.8,0l48,0c2.2,0 4,1.8 4,4l0,88c0,2.2 -1.8,4 -4,4l-48,0c-2.2,0 -4,-1.8 -4,-4l0,-88c0,-2.2 1.8,-4 4,-4l0,0zm0,12l0,72l48,0l0,-72l-48,0z" class="st0"/>
  <rect fill="#5abfc7" clip-rule="evenodd" fill-rule="evenodd" y="12" x="22.8" width="48" id="XMLID_27_" height="52" class="st1"/>
  <rect fill="#0093ce" clip-rule="evenodd" fill-rule="evenodd" y="64" x="22.8" width="48" id="XMLID_26_" height="20" class="st2"/>
  <path fill="#2b2d2d" clip-rule="evenodd" fill-rule="evenodd" id="XMLID_25_" d="m40.8,4l12,0c1.1,0 2,0.9 2,2l0,0c0,1.1 -0.9,2 -2,2l-12,0c-1.1,0 -2,-0.9 -2,-2l0,0c0,-1.1 0.9,-2 2,-2z" class="st3"/>
  <path fill="#2b2d2d" clip-rule="evenodd" fill-rule="evenodd" id="XMLID_24_" d="m30.8,8c1.1,0 2,-0.9 2,-2c0,-1.1 -0.9,-2 -2,-2c-1.1,0 -2,0.9 -2,2c0,1.1 0.9,2 2,2z" class="st3"/>
  <path fill="#2b2d2d" clip-rule="evenodd" fill-rule="evenodd" id="XMLID_23_" d="m42.8,88l8,0c1.1,0 2,0.9 2,2l0,0c0,1.1 -0.9,2 -2,2l-8,0c-1.1,0 -2,-0.9 -2,-2l0,0c0,-1.1 0.9,-2 2,-2z" class="st3"/>
  <path fill="#c5a86c" clip-rule="evenodd" fill-rule="evenodd" id="XMLID_22_" d="m29.3,20l5,0c1.4,0 2.5,1.1 2.5,2.5l0,5c0,1.4 -1.1,2.5 -2.5,2.5l-5,0c-1.4,0 -2.5,-1.1 -2.5,-2.5l0,-5c0,-1.4 1.1,-2.5 2.5,-2.5z" class="st4"/>
  <path fill="#839a8f" clip-rule="evenodd" fill-rule="evenodd" id="XMLID_21_" d="m44.3,20l5,0c1.4,0 2.5,1.1 2.5,2.5l0,5c0,1.4 -1.1,2.5 -2.5,2.5l-5,0c-1.4,0 -2.5,-1.1 -2.5,-2.5l0,-5c0,-1.4 1.1,-2.5 2.5,-2.5z" class="st5"/>
  <path fill="#4ca3ab" clip-rule="evenodd" fill-rule="evenodd" id="XMLID_20_" d="m59.3,20l5,0c1.4,0 2.5,1.1 2.5,2.5l0,5c0,1.4 -1.1,2.5 -2.5,2.5l-5,0c-1.4,0 -2.5,-1.1 -2.5,-2.5l0,-5c0,-1.4 1.1,-2.5 2.5,-2.5z" class="st6"/>
  <path fill="#9ec645" clip-rule="evenodd" fill-rule="evenodd" id="XMLID_19_" d="m29.3,34l5,0c1.4,0 2.5,1.1 2.5,2.5l0,5c0,1.4 -1.1,2.5 -2.5,2.5l-5,0c-1.4,0 -2.5,-1.1 -2.5,-2.5l0,-5c0,-1.4 1.1,-2.5 2.5,-2.5z" class="st7"/>
  <path fill="#c8c475" clip-rule="evenodd" fill-rule="evenodd" id="XMLID_18_" d="m44.3,34l5,0c1.4,0 2.5,1.1 2.5,2.5l0,5c0,1.4 -1.1,2.5 -2.5,2.5l-5,0c-1.4,0 -2.5,-1.1 -2.5,-2.5l0,-5c0,-1.4 1.1,-2.5 2.5,-2.5z" class="st8"/>
  <path fill="#e5a456" clip-rule="evenodd" fill-rule="evenodd" id="XMLID_17_" d="m59.3,34l5,0c1.4,0 2.5,1.1 2.5,2.5l0,5c0,1.4 -1.1,2.5 -2.5,2.5l-5,0c-1.4,0 -2.5,-1.1 -2.5,-2.5l0,-5c0,-1.4 1.1,-2.5 2.5,-2.5z" class="st9"/>
  <path fill="#c5a86c" clip-rule="evenodd" fill-rule="evenodd" id="XMLID_16_" d="m29.3,48l5,0c1.4,0 2.5,1.1 2.5,2.5l0,5c0,1.4 -1.1,2.5 -2.5,2.5l-5,0c-1.4,0 -2.5,-1.1 -2.5,-2.5l0,-5c0,-1.4 1.1,-2.5 2.5,-2.5z" class="st4"/>
  <path fill="#bb639e" clip-rule="evenodd" fill-rule="evenodd" id="XMLID_15_" d="m44.3,48l5,0c1.4,0 2.5,1.1 2.5,2.5l0,5c0,1.4 -1.1,2.5 -2.5,2.5l-5,0c-1.4,0 -2.5,-1.1 -2.5,-2.5l0,-5c0,-1.4 1.1,-2.5 2.5,-2.5z" class="st10"/>
  <path fill="#c18d63" clip-rule="evenodd" fill-rule="evenodd" id="XMLID_14_" d="m59.3,48l5,0c1.4,0 2.5,1.1 2.5,2.5l0,5c0,1.4 -1.1,2.5 -2.5,2.5l-5,0c-1.4,0 -2.5,-1.1 -2.5,-2.5l0,-5c0,-1.4 1.1,-2.5 2.5,-2.5z" class="st11"/>
  <path fill="#a1bbae" clip-rule="evenodd" fill-rule="evenodd" id="XMLID_13_" d="m28.8,14l36,0c1.1,0 2,0.9 2,2l0,0c0,1.1 -0.9,2 -2,2l-36,0c-1.1,0 -2,-0.9 -2,-2l0,0c0,-1.1 0.9,-2 2,-2z" class="st12"/>
  <circle fill="#c3cacb" clip-rule="evenodd" fill-rule="evenodd" r="2" id="XMLID_12_" cy="64" cx="54.8" class="st13"/>
  <circle fill="#c3cacb" clip-rule="evenodd" fill-rule="evenodd" r="2" id="XMLID_11_" cy="64" cx="46.8" class="st13"/>
  <circle fill="#2b2d2d" clip-rule="evenodd" fill-rule="evenodd" r="2" id="XMLID_10_" cy="64" cx="38.8" class="st3"/>
  <path fill="#9ec645" clip-rule="evenodd" fill-rule="evenodd" id="XMLID_9_" d="m29.3,70l5,0c1.4,0 2.5,1.1 2.5,2.5l0,5c0,1.4 -1.1,2.5 -2.5,2.5l-5,0c-1.4,0 -2.5,-1.1 -2.5,-2.5l0,-5c0,-1.4 1.1,-2.5 2.5,-2.5z" class="st7"/>
  <path fill="#e18882" clip-rule="evenodd" fill-rule="evenodd" id="XMLID_8_" d="m44.3,70l5,0c1.4,0 2.5,1.1 2.5,2.5l0,5c0,1.4 -1.1,2.5 -2.5,2.5l-5,0c-1.4,0 -2.5,-1.1 -2.5,-2.5l0,-5c0,-1.4 1.1,-2.5 2.5,-2.5z" class="st14"/>
  <path fill="#a1bbae" clip-rule="evenodd" fill-rule="evenodd" id="XMLID_7_" d="m59.3,70l5,0c1.4,0 2.5,1.1 2.5,2.5l0,5c0,1.4 -1.1,2.5 -2.5,2.5l-5,0c-1.4,0 -2.5,-1.1 -2.5,-2.5l0,-5c0,-1.4 1.1,-2.5 2.5,-2.5z" class="st12"/>
  <path fill="#7f8272" clip-rule="evenodd" fill-rule="evenodd" id="XMLID_6_" d="m31.8,27c1.1,0 2,-0.9 2,-2c0,-1.1 -0.9,-2 -2,-2c-1.1,0 -2,0.9 -2,2c0,1.1 0.9,2 2,2z" class="st15"/>
  <path fill="#db3d57" clip-rule="evenodd" fill-rule="evenodd" id="XMLID_5_" d="m44.8,51l4,0c1.1,0 2,0.9 2,2l0,0c0,1.1 -0.9,2 -2,2l-4,0c-1.1,0 -2,-0.9 -2,-2l0,0c0,-1.1 0.9,-2 2,-2z" class="st16"/>
  <path fill="#ebc32e" clip-rule="evenodd" fill-rule="evenodd" id="XMLID_4_" d="m61.8,43c2.2,0 4,-1.8 4,-4c0,-2.2 -1.8,-4 -4,-4c-2.2,0 -4,1.8 -4,4c0,2.2 1.8,4 4,4z" class="st17"/>
  <path fill="#ebc32e" clip-rule="evenodd" fill-rule="evenodd" id="XMLID_3_" d="m31.8,77c1.1,0 2,-0.9 2,-2c0,-1.1 -0.9,-2 -2,-2c-1.1,0 -2,0.9 -2,2c0,1.1 0.9,2 2,2z" class="st17"/>
 </g>
</svg>