<svg width="24" height="24" xmlns="http://www.w3.org/2000/svg">

 <g>
  <title>background</title>
  <rect fill="none" id="canvas_background" height="402" width="582" y="-1" x="-1"/>
 </g>
 <g>
  <title>Layer 1</title>
  <path id="svg_2" fill="#000000" d="m18,22.999976c0.552,0 1,-0.5 1,-1l0,-1l0,-1l0,-1l0,-1l0,-11l0,-1l0,-1l0,-1c0,-0.6 -0.448,-1 -1,-1l-1,0l-1,0l-9,0l-1,0c-0.5523,0 -1,0.4 -1,1l0,1l0,16l0,1c0,0.5 0.4477,1 1,1l1,0l9,0l1,0l1,0z"/>
  <path id="svg_3" fill="#191919" d="m6.008778,1.999976c-0.5523,0 -1,0.4 -1,1l0,1l0,1l0,1l0,1l0,11l0,1l0,1l0,1c0,0.5 0.4477,1 1,1l1,0l1,0l9,0l1,0c0.552,0 1,-0.5 1,-1l0,-1l0,-16l0,-1c0,-0.6 -0.448,-1 -1,-1l-1,0l-9,0l-1,0l-1,0z"/>
  <rect stroke="null" id="svg_4" y="3" x="6" width="12" height="10.191278" fill="#333333"/>
  <ellipse id="svg_16" cy="13.781376" cx="6.811686" fill-opacity="null" stroke-opacity="null" stroke-width="null" stroke="null" fill="#333333"/>
  <ellipse id="svg_17" cy="13.658484" cx="6.557126" fill-opacity="null" stroke-opacity="null" stroke-width="null" stroke="null" fill="#333333"/>
  <path id="svg_18" d="m5.80003,14.37674c0,-0.1172 0.03803,-0.16409 0.08738,-0.20316c0.04935,-0.03907 0.29158,-0.04687 0.48053,-0.04687c0.18895,0 11.42962,0.02344 11.52872,0.01954c0.0991,-0.00391 0.14208,0.02734 0.20706,0.10547c0.06497,0.07813 0.0444,0.09768 0.05078,0.17191c0.00638,0.07422 0.02876,1.76582 0.01172,1.95335c-0.01705,0.18753 0.01705,0.19926 -0.07814,0.28912c-0.09519,0.08986 -0.09232,0.10157 -0.19924,0.16016c-0.10692,0.0586 -0.59525,0.38282 -0.67586,0.48439c-0.08061,0.10157 -0.11185,0.16018 -0.14454,0.30083c-0.03269,0.14064 -0.00638,-0.00392 0,0.26954c0.00638,0.27347 0.01315,2.45346 0.00781,2.55503c-0.00534,0.10158 -0.04935,0.23441 -0.12892,0.29301c-0.07957,0.0586 -0.17724,0.1133 -0.35942,0.13283c-0.18218,0.01953 -9.01142,-0.0078 -9.11051,-0.0078c-0.09909,0 -0.25249,0.00388 -0.38283,-0.09769c-0.13034,-0.10157 -0.10793,-0.32814 -0.11327,-0.41799c-0.00535,-0.08985 -0.00925,-2.55123 -0.01563,-2.67234c-0.00638,-0.1211 0.00248,-0.17971 -0.06003,-0.30471c-0.06252,-0.12501 -0.05474,-0.12111 -0.14066,-0.23439c-0.08592,-0.11328 -0.66024,-0.45704 -0.72274,-0.50001c-0.0625,-0.04297 -0.0547,-0.00782 -0.15236,-0.09767c-0.09766,-0.08985 -0.10547,-0.20312 -0.10794,-0.33986c-0.00246,-0.13674 0.00555,-1.12512 0.01809,-1.62127z" stroke-opacity="null" stroke-width="null" stroke="null" fill="#333333"/>
  <rect stroke="null" rx="1" id="svg_20" height="5.310865" width="6.813547" y="14.780222" x="8.593228" stroke-opacity="null" stroke-width="NaN" fill="#999999"/>
  <rect stroke="null" rx="0.5" id="svg_32" height="1.742934" width="1.70842" y="14.547456" x="15.975602" stroke-width="NaN" fill="#7f7f7f"/>
  <rect stroke="null" rx="0.5" id="svg_34" height="1.742934" width="1.70842" y="14.668253" x="6.380839" stroke-width="NaN" fill="#7f7f7f"/>
  <rect stroke="null" rx="0.5" id="svg_35" height="2.415948" width="2.571259" y="16.169592" x="10.815829" stroke-width="NaN" fill="#191919"/>
  <rect stroke="null" rx="0.5" id="svg_36" height="0.811068" width="0.724784" y="16.997917" x="11.764951" stroke-width="NaN" fill="#7f7f7f"/>
  <text stroke="null" transform="matrix(0.8296442627906799,0,0,0.673794150352478,2.7363390289247036,-3.736076371744275) " xml:space="preserve" text-anchor="start" font-family="Helvetica, Arial, sans-serif" font-size="24" id="svg_38" y="10.295494" x="16.06401" stroke-opacity="null" stroke-width="0" fill="#000000"/>
  <text stroke="null" transform="matrix(0.08007666017997588,0,0,0.05949626950358306,11.197800599754968,5.8361511844008405) " xml:space="preserve" text-anchor="start" font-family="Helvetica, Arial, sans-serif" font-size="24" id="svg_39" y="36.835853" x="-32.677242" stroke-opacity="null" stroke-width="0" fill="#ffffff">Medtronic</text>
 </g>
</svg>